<?xml version="1.0" standalone="yes"?>
<svg xmlns="http://www.w3.org/2000/svg" width="208" height="233">
<path style="fill:#000000; stroke:none;" d="M0 0L0 233L208 233L208 0L0 0z"/>
<path style="fill:#46454a; stroke:none;" d="M112 14C118.436 16.7007 128.049 15 135 15L186 15C179.564 12.2993 169.951 14 163 14L112 14z"/>
<path style="fill:#333438; stroke:none;" d="M111 15L112 16L111 15z"/>
<path style="fill:#9a999c; stroke:none;" d="M112 15C117.289 18.0582 127.827 16 134 16C151.208 16 170.06 13.8551 187 17C181.887 13.1267 172.218 15 166 15L112 15z"/>
<path style="fill:#929496; stroke:none;" d="M111 16L111 23C112.059 20.4657 112.059 18.5343 111 16z"/>
<path style="fill:#b9bbbc; stroke:none;" d="M112 16C111.918 18.5209 112.036 21.3761 109.683 22.973C107.348 24.5576 104.926 23.7925 103 26C109.037 24.5578 115.342 23.9841 112 16z"/>
<path style="fill:#706f72; stroke:none;" d="M114 16C120.194 18.5991 129.314 17 136 17L185 17C178.806 14.4009 169.686 16 163 16L114 16z"/>
<path style="fill:#37393b; stroke:none;" d="M187 16L187 23C188.059 20.4657 188.059 18.5343 187 16z"/>
<path style="fill:#3e4042; stroke:none;" d="M113 17L113 25C114.161 22.2301 114.161 19.7699 113 17z"/>
<path style="fill:#000000; stroke:none;" d="M114 17C113.913 24.3426 111.072 25.936 104 26L104 68C104 72.4261 105.586 80.7682 102.972 84.5664C101.049 87.3611 96.961 86.9732 94 87C93.7205 95.5837 88.1425 95 81 95C80.9915 97.414 81.3907 100.564 79.9722 102.682C77.4567 106.439 69.8866 105 66 105C67.0182 109.445 66.5075 112.198 64 116C66.3771 116.572 68.558 116.89 71 117L71 121L67 121L67 137L35 137L35 145L30 144C28.2763 148.068 28.0034 151.62 28 156L38 156L38 166C45.9151 164.143 47.9735 167.497 48 175C50.5004 175.081 53.404 174.956 54.9722 177.318C56.6797 179.89 55.9998 184.077 56 187C56.0005 195.019 56.4687 203.089 55 211L72 211L72 205C64.142 204.972 62.0278 202.858 62 195L72 195C71.313 191.3 71.0104 187.763 71 184C74.1217 184.026 76.9605 184.276 80 185C80.0094 182.336 79.53 178.675 81.6034 176.603C84.129 174.08 90.9247 174.273 92.9722 177.316C94.2409 179.202 93.9746 181.85 94 184C96.7066 184.025 100.282 183.671 102.397 185.742C104.269 187.577 103.983 190.608 103.999 193C104.041 199.021 104.401 205.114 103 211L119 211L119 206C116.267 205.968 112.764 206.287 111.028 203.682C109.461 201.332 110.001 197.671 110 195L110 177C110.001 174.324 109.464 170.674 111.028 168.318C112.596 165.956 115.5 166.081 118 166C118.028 158.142 120.142 156.028 128 156C128 148.904 130.773 142.853 130.985 136C131.218 128.459 131.483 120.565 130.946 113.039C130.75 110.292 129.206 107.736 129.262 105.001C129.338 101.316 131.845 99.825 135 99L135 89L139 89C139.445 86.1489 140.093 83.7929 143.059 82.6034C146.265 81.3173 150.613 82 154 82L177 82L177 77C169.752 77 157.821 79.3099 151.148 76.3966C147.419 74.7683 146.929 68.4405 150.318 66.179C153.58 64.0023 159.28 65 163 65L195 65L195 26C187.836 25.9747 185.088 24.4796 185 17L114 17z"/>
<path style="fill:#414344; stroke:none;" d="M185 17L185 25C186.161 22.2302 186.161 19.7699 185 17z"/>
<path style="fill:#bbbdbf; stroke:none;" d="M186 17L186 25L196 25C193.11 23.7871 190.126 24.0017 187 24C186.981 21.4567 186.985 19.3315 186 17z"/>
<path style="fill:#5d5f60; stroke:none;" d="M103 23C105.613 24.0977 108.165 23.9928 111 24C108.387 22.9023 105.835 23.0072 103 23z"/>
<path style="fill:#6c6e6f; stroke:none;" d="M187 23C189.89 24.213 192.874 23.9983 196 24C193.11 22.7871 190.126 23.0017 187 23z"/>
<path style="fill:#424244; stroke:none;" d="M101 24L101 84C102.875 79.5313 102 73.8087 102 69L102 40C102 34.9198 102.981 28.7199 101 24z"/>
<path style="fill:#78797d; stroke:none;" d="M102 24L103 25L102 24z"/>
<path style="fill:#7a7c7d; stroke:none;" d="M112 24L113 25L112 24z"/>
<path style="fill:#787a7b; stroke:none;" d="M196 24L197 25L196 24z"/>
<path style="fill:#27292b; stroke:none;" d="M197 24L197 66C200.407 57.8817 198 44.7968 198 36C198 32.0172 198.552 27.6987 197 24z"/>
<path style="fill:#c4c3c6; stroke:none;" d="M102 25L102 86C103.981 81.2801 103 75.0802 103 70L103 40C103 35.1913 103.875 29.4687 102 25z"/>
<path style="fill:#565859; stroke:none;" d="M104 25C106.613 26.0977 109.165 25.9928 112 26C109.387 24.9023 106.836 25.0072 104 25z"/>
<path style="fill:#545356; stroke:none;" d="M186 25C189.163 26.3274 192.586 25.9996 196 26C192.837 24.6726 189.414 25.0004 186 25z"/>
<path style="fill:#e0e2e4; stroke:none;" d="M196 25L196 66C199.306 58.121 197 45.5339 197 37C197 33.0172 197.552 28.6986 196 25z"/>
<path style="fill:#797979; stroke:none;" d="M103 26L103 85C104.981 80.2801 104 74.0802 104 69L104 40C104 35.4645 104.769 30.2151 103 26z"/>
<path style="fill:#3d403f; stroke:none;" d="M195 26L195 65C198.206 57.3606 196 45.2707 196 37C196 33.2976 196.441 29.4345 195 26z"/>
<path style="fill:#393939; stroke:none;" d="M119 28L120 29L119 28z"/>
<path style="fill:#6c6c6c; stroke:none;" d="M120 28C123.697 29.5515 128.017 29 132 29C128.303 27.4485 123.983 28 120 28z"/>
<path style="fill:#313131; stroke:none;" d="M132 28L133 29L132 28z"/>
<path style="fill:#1a1a1a; stroke:none;" d="M118 29L118 39C119.346 35.793 119.346 32.207 118 29z"/>
<path style="fill:#b0b0b0; stroke:none;" d="M119 29L119 39L131 39C128.18 37.8163 124.002 38.6923 121.742 36.3966C119.914 34.5387 119.993 31.2958 119 29z"/>
<path style="fill:#e5e5e5; stroke:none;" d="M120 29C123.697 30.5515 128.017 30 132 30C128.303 28.4485 123.983 29 120 29z"/>
<path style="fill:#767676; stroke:none;" d="M132 29L132 39C133.346 35.793 133.346 32.207 132 29z"/>
<path style="fill:#0f0f0f; stroke:none;" d="M133 29L133 39C134.346 35.793 134.346 32.207 133 29z"/>
<path style="fill:#c4c4c4; stroke:none;" d="M120 30L120 36C120.951 33.7147 120.951 32.2853 120 30z"/>
<path style="fill:#464646; stroke:none;" d="M121 30L121 37C121.874 34.9479 121.953 33.2528 122 31L130 31L130 37C130.985 34.6685 130.981 32.5433 131 30L121 30z"/>
<path style="fill:#d2d2d2; stroke:none;" d="M131 30L131 39C132.256 36.0059 132.256 32.9941 131 30z"/>
<path style="fill:#000000; stroke:none;" d="M122 31L122 37L130 37L130 31L122 31z"/>
<path style="fill:#575757; stroke:none;" d="M121 37C124.163 38.3274 127.586 37.9996 131 38C127.837 36.6726 124.414 37.0004 121 37z"/>
<path style="fill:#424242; stroke:none;" d="M119 39L120 40L119 39z"/>
<path style="fill:#7f7f7f; stroke:none;" d="M120 39C123.697 40.5515 128.017 40 132 40C128.303 38.4485 123.983 39 120 39z"/>
<path style="fill:#3a3a3a; stroke:none;" d="M132 39L133 40L132 39z"/>
<path style="fill:#606264; stroke:none;" d="M150 65C154.469 66.8752 160.191 66 165 66L196 66C191.531 64.1248 185.809 65 181 65L150 65z"/>
<path style="fill:#151515; stroke:none;" d="M148 66L148 76C149.346 72.793 149.346 69.207 148 66z"/>
<path style="fill:#929292; stroke:none;" d="M149 66L149 76C150.346 72.793 150.346 69.207 149 66z"/>
<path style="fill:#c9cbcd; stroke:none;" d="M150 66L150 75C151.098 72.3873 150.993 69.8355 151 67L196 67C191.531 65.1248 185.809 66 181 66L150 66z"/>
<path style="fill:#898b8f; stroke:none;" d="M196 66L197 67L196 66z"/>
<path style="fill:#5c5e5f; stroke:none;" d="M151 67C155.469 68.8752 161.191 68 166 68L196 68C191.531 66.1248 185.809 67 181 67L151 67z"/>
<path style="fill:#323337; stroke:none;" d="M196 67L197 68L196 67z"/>
<path style="fill:#151718; stroke:none;" d="M151 68C155.469 69.8752 161.191 69 166 69L196 69C191.531 67.1248 185.809 68 181 68L151 68z"/>
<path style="fill:#a2a1a4; stroke:none;" d="M151 74C158.409 77.1089 169.975 75 178 75C170.591 71.8911 159.025 74 151 74z"/>
<path style="fill:#1d1e22; stroke:none;" d="M178 74C178.545 75.6352 178.365 75.455 180 76L180 74L178 74z"/>
<path style="fill:#bababc; stroke:none;" d="M150 75C157.649 78.2096 169.712 76 178 76C170.351 72.7904 158.288 75 150 75z"/>
<path style="fill:#8e9091; stroke:none;" d="M178 75L178 83L140 83C146.209 87.7036 160.375 85.0005 168 85C170.693 84.9998 175.124 85.7717 177.397 83.9722C179.929 81.9667 179.043 77.4862 178 75z"/>
<path style="fill:#1f1f21; stroke:none;" d="M149 76C156.649 79.2096 168.712 77 177 77C169.351 73.7904 157.288 76 149 76z"/>
<path style="fill:#494b4d; stroke:none;" d="M177 76L177 83C178.059 80.4657 178.059 78.5343 177 76z"/>
<path style="fill:#56575b; stroke:none;" d="M179 76L179 83C180.059 80.4657 180.059 78.5343 179 76z"/>
<path style="fill:#2b2d2e; stroke:none;" d="M141 82C144.959 83.6611 149.74 83 154 83L177 83C173.041 81.3389 168.26 82 164 82L141 82z"/>
<path style="fill:#292c2b; stroke:none;" d="M91 86C94.4117 84.554 97.304 84.0408 101 84C97.8731 82.1984 91.8947 81.8246 91 86z"/>
<path style="fill:#2b2c30; stroke:none;" d="M7 84L8 85L7 84z"/>
<path style="fill:#6a6c6d; stroke:none;" d="M8 84C10.6127 85.0977 13.1645 84.9928 16 85C13.3873 83.9023 10.8355 84.0072 8 84z"/>
<path style="fill:#37393b; stroke:none;" d="M16 84L17 85L16 84z"/>
<path style="fill:#7a7c7b; stroke:none;" d="M93 84C95.8897 85.2129 98.8741 84.9983 102 85C99.1103 83.7871 96.1259 84.0017 93 84z"/>
<path style="fill:#363538; stroke:none;" d="M139 84L139 102C140.952 97.349 140.952 88.651 139 84z"/>
<path style="fill:#dbdadd; stroke:none;" d="M140 84L140 101C141.883 96.5135 141.883 88.4865 140 84z"/>
<path style="fill:#4c4b4e; stroke:none;" d="M6 85L6 138C7.66112 134.041 7 129.26 7 125L7 100C7 95.1913 7.87516 89.4687 6 85z"/>
<path style="fill:#a7a9ab; stroke:none;" d="M7 85L7 138C9.08511 133.031 8 126.35 8 121L8 86L17 86C13.8367 84.6726 10.4144 85.0004 7 85z"/>
<path style="fill:#a5a7a9; stroke:none;" d="M92 85L92 93C87.5774 93 83.2606 92.7406 79 94C83.2165 95.7693 88.4588 95 93 95C92.9996 91.5856 93.3274 88.1633 92 85z"/>
<path style="fill:#e0e0e0; stroke:none;" d="M93 85C95.8897 86.2129 98.8741 85.9983 102 86C99.1103 84.7871 96.1259 85.0017 93 85z"/>
<path style="fill:#464646; stroke:none;" d="M103 85L104 86L103 85z"/>
<path style="fill:#6c6c6e; stroke:none;" d="M141 85L141 101C142.812 96.6811 142.812 89.3189 141 85z"/>
<path style="fill:#4e4e50; stroke:none;" d="M8 86L8 137C9.66111 133.041 9 128.26 9 124L9 100C9 95.4645 9.76875 90.2151 8 86z"/>
<path style="fill:#010101; stroke:none;" d="M9 86L9 137C16.858 137.028 18.9722 139.142 19 147C23.4107 147.033 27.5435 148.229 30 144C31.8006 144.562 33.1218 144.824 35 145L35 137L67 137L67 121L71 121L71 117L64 116L66 115C62.5676 113.56 58.7002 114 55 114C54.9713 116.425 55.2816 119.519 53.3966 121.397C50.5296 124.252 37.591 124.295 34.7423 121.397C32.867 119.489 33.0594 116.455 33 114C26.1666 113.919 24.0808 111.833 24 105C12.4542 104.864 15 94.9072 15 86L9 86z"/>
<path style="fill:#606362; stroke:none;" d="M15 86L15 104C16.9516 99.349 16.9516 90.651 15 86z"/>
<path style="fill:#bdbfc1; stroke:none;" d="M16 86L16 104L23 104C20.9479 103.126 19.2528 103.047 17 103C17 97.638 18.0872 90.974 16 86z"/>
<path style="fill:#616463; stroke:none;" d="M17 86L17 102C18.8123 97.6811 18.8123 90.3189 17 86z"/>
<path style="fill:#6c6c6c; stroke:none;" d="M91 86L91 93C92.0595 90.4657 92.0595 88.5343 91 86z"/>
<path style="fill:#5c5c5c; stroke:none;" d="M93 86L93 94C94.1614 91.2301 94.1614 88.7699 93 86z"/>
<path style="fill:#1f1f1f; stroke:none;" d="M94 86C96.6127 87.0977 99.1645 86.9928 102 87C99.3873 85.9023 96.8355 86.0072 94 86z"/>
<path style="fill:#010101; stroke:none;" d="M135 89L135 99C131.384 99.5316 129.139 100.977 129.109 105.001C129.087 107.807 130.548 110.285 130.871 113.039C131.978 122.466 131.728 133.692 130 143L138 143C136.449 136.487 137 129.658 137 123C137 120.294 136.46 116.763 137.603 114.228C139.217 110.649 145.679 109.899 148.397 112.603C150.282 114.48 149.971 117.576 150 120L158 120L158 103C153.505 103 142.889 104.97 140.028 100.682C138.045 97.7108 139 92.4075 139 89L135 89z"/>
<path style="fill:#727475; stroke:none;" d="M79 93L80 94L79 93z"/>
<path style="fill:#939695; stroke:none;" d="M78 94L78 102C79.2727 99.1382 79.5716 96.7188 78 94z"/>
<path style="fill:#363636; stroke:none;" d="M80 95L80 104C81.2561 101.006 81.2561 97.9941 80 95z"/>
<path style="fill:#ababab; stroke:none;" d="M79 96C78.903 98.7169 78.7024 101.305 79 104C80.1614 101.23 80.1614 98.7699 79 96z"/>
<path style="fill:#3c3e40; stroke:none;" d="M142 100C147.222 102.191 154.368 101 160 101C154.778 98.8086 147.632 100 142 100z"/>
<path style="fill:#a4a4a6; stroke:none;" d="M140 101C145.011 103.103 152.144 99.9995 156.682 103.028C161.087 105.967 159 117.361 159 122C160.581 118.232 162.086 103.77 157.682 101.603C153.202 99.3989 144.934 101 140 101z"/>
<path style="fill:#757779; stroke:none;" d="M159 101L160 102L159 101z"/>
<path style="fill:#737576; stroke:none;" d="M17 102C19.6127 103.098 22.1645 102.993 25 103C22.3873 101.902 19.8355 102.007 17 102z"/>
<path style="fill:#3e4042; stroke:none;" d="M65 102L66 103L65 102z"/>
<path style="fill:#787a7b; stroke:none;" d="M66 102C69.6975 103.552 74.0168 103 78 103C74.3025 101.448 69.9832 102 66 102z"/>
<path style="fill:#727274; stroke:none;" d="M140 102C145.222 104.191 152.368 103 158 103C152.778 100.809 145.632 102 140 102z"/>
<path style="fill:#6b6b6d; stroke:none;" d="M160 102L160 121C162.02 116.187 162.02 106.813 160 102z"/>
<path style="fill:#a9a8ab; stroke:none;" d="M23 103C23.5796 105.426 23.4456 109.416 25.027 111.397C26.9007 113.743 32.2391 113.487 35 114C32.1963 111.875 29.4665 112.011 26 112C25.9867 108.231 26.3516 105.173 23 103z"/>
<path style="fill:#5e6061; stroke:none;" d="M25 103L26 104L25 103z"/>
<path style="fill:#353739; stroke:none;" d="M26 103L26 112L33 112C30.9479 111.126 29.2528 111.047 27 111C26.9928 108.165 27.0977 105.613 26 103z"/>
<path style="fill:#535557; stroke:none;" d="M64 103L65 104L64 103z"/>
<path style="fill:#a4a6a7; stroke:none;" d="M65.3333 103.667C65.2778 103.722 65.2222 104.778 65.6667 104.333C65.7222 104.278 65.7778 103.222 65.3333 103.667z"/>
<path style="fill:#c7c9ca; stroke:none;" d="M66 103C69.9587 104.661 74.7366 104 79 104C75.0413 102.339 70.2634 103 66 103z"/>
<path style="fill:#4f4f4f; stroke:none;" d="M158 103L158 121C159.952 116.349 159.952 107.651 158 103z"/>
<path style="fill:#636566; stroke:none;" d="M16 104C18.6127 105.098 21.1645 104.993 24 105C21.3873 103.902 18.8355 104.007 16 104z"/>
<path style="fill:#8f8f91; stroke:none;" d="M64 104C64.008 107.169 64.1004 109.959 65 113C66.3778 109.709 66.1481 106.836 64 104z"/>
<path style="fill:#646667; stroke:none;" d="M66 104C69.9587 105.661 74.7366 105 79 105C75.0413 103.339 70.2634 104 66 104z"/>
<path style="fill:#404040; stroke:none;" d="M79 104L80 105L79 104z"/>
<path style="fill:#151517; stroke:none;" d="M66 106L66 113C67.0595 110.466 67.0595 108.534 66 106z"/>
<path style="fill:#393b3a; stroke:none;" d="M53 113C56.694 112.121 60.2143 112.003 64 112C60.6123 110.578 55.5542 110.077 53 113z"/>
<path style="fill:#111111; stroke:none;" d="M139 111C142.163 112.327 145.586 112 149 112C145.837 110.673 142.414 111 139 111z"/>
<path style="fill:#6f6e71; stroke:none;" d="M24 112L25 113L24 112z"/>
<path style="fill:#68676a; stroke:none;" d="M34 112L35 113L34 112z"/>
<path style="fill:#a7aaa9; stroke:none;" d="M54 114C57.694 113.121 61.2143 113.003 65 113C61.6123 111.578 56.5542 111.077 54 114z"/>
<path style="fill:#1a191c; stroke:none;" d="M137 112L137 142C139.395 136.293 138 128.154 138 122C138 118.581 138.328 115.166 137 112z"/>
<path style="fill:#797979; stroke:none;" d="M138.333 112.667C138.278 112.722 138.222 113.778 138.667 113.333C138.722 113.278 138.778 112.222 138.333 112.667z"/>
<path style="fill:#a1a1a1; stroke:none;" d="M139 112C142.163 113.327 145.586 113 149 113C145.837 111.673 142.414 112 139 112z"/>
<path style="fill:#6d6d6d; stroke:none;" d="M149 112L150 113L149 112z"/>
<path style="fill:#494949; stroke:none;" d="M25 113L26 114L25 113z"/>
<path style="fill:#848484; stroke:none;" d="M26 113C28.3316 113.985 30.4567 113.981 33 114C30.6684 113.015 28.5433 113.019 26 113z"/>
<path style="fill:#5d5f60; stroke:none;" d="M35 113L35 121C39.9301 121 49.5871 122.906 53 119C47.4077 120.331 41.7168 120 36 120C35.9813 117.457 35.9845 115.332 35 113z"/>
<path style="fill:#8f9192; stroke:none;" d="M53 113C53.0081 116.169 53.1004 118.959 54 122C55.3778 118.709 55.1481 115.836 53 113z"/>
<path style="fill:#838587; stroke:none;" d="M55 113C58.1633 114.327 61.5856 114 65 114C61.8367 112.673 58.4144 113 55 113z"/>
<path style="fill:#3c3e40; stroke:none;" d="M65 113L66 114L65 113z"/>
<path style="fill:#bebebe; stroke:none;" d="M139 115C142.368 114.198 145.545 114.01 149 114L149 121C150.098 118.387 149.993 115.836 150 113C146.294 113 141.579 112.049 139 115z"/>
<path style="fill:#4d4c4f; stroke:none;" d="M33 114L33 121C34.0595 118.466 34.0595 116.534 33 114z"/>
<path style="fill:#c8c8c8; stroke:none;" d="M34 114L34 122L54 122C48.5308 119.705 40.9013 121 35 121C34.9813 118.457 34.9845 116.332 34 114z"/>
<path style="fill:#939597; stroke:none;" d="M138 114L138 143C139.328 139.834 139 136.419 139 133C139 127.113 140.292 119.462 138 114z"/>
<path style="fill:#9b9a9d; stroke:none;" d="M148 114L148 122C149.161 119.23 149.161 116.77 148 114z"/>
<path style="fill:#ced0d1; stroke:none;" d="M139 115L139 134C139 136.36 139.589 139.783 138.278 141.889C135.724 145.992 130.118 141.782 129 147C131.744 145.474 137.097 145.766 138.972 143.397C140.468 141.507 139.995 138.237 140 136C140.013 129.588 141.494 120.943 139 115z"/>
<path style="fill:#1b1a1d; stroke:none;" d="M150 120C152.613 121.098 155.165 120.993 158 121C155.387 119.902 152.835 120.007 150 120z"/>
<path style="fill:#fbfdff; stroke:none;" d="M149 121L150 122L149 121z"/>
<path style="fill:#c8cacb; stroke:none;" d="M150 121C152.89 122.213 155.874 121.998 159 122C156.11 120.787 153.126 121.002 150 121z"/>
<path style="fill:#575757; stroke:none;" d="M34 122C39.7147 124.398 47.8308 123 54 123C48.2853 120.602 40.1692 122 34 122z"/>
<path style="fill:#393b3c; stroke:none;" d="M148 122L149 123L148 122z"/>
<path style="fill:#7c7e80; stroke:none;" d="M149 122C152.163 123.327 155.586 123 159 123C155.837 121.673 152.414 122 149 122z"/>
<path style="fill:#4c4b50; stroke:none;" d="M159 122L160 123L159 122z"/>
<path style="fill:#898b8f; stroke:none;" d="M8 137L9 138L8 137z"/>
<path style="fill:#4c4f4e; stroke:none;" d="M9 137C11.8897 138.213 14.8741 137.998 18 138C15.1103 136.787 12.1259 137.002 9 137z"/>
<path style="fill:#1a1c20; stroke:none;" d="M6 138L6 140L8 140C7.45495 138.365 7.63516 138.545 6 138z"/>
<path style="fill:#74767a; stroke:none;" d="M7 138L8 139L7 138z"/>
<path style="fill:#e0e3e2; stroke:none;" d="M8 138C11.1633 139.327 14.5856 139 18 139C14.8367 137.673 11.4144 138 8 138z"/>
<path style="fill:#999b9d; stroke:none;" d="M18 138C16.9191 141.657 17.0004 145.199 17 149C19.4238 145.801 19.547 141.687 18 138z"/>
<path style="fill:#404243; stroke:none;" d="M8 139C10.6127 140.098 13.1645 139.993 16 140L16 148C17.2129 145.11 16.9983 142.126 17 139L8 139z"/>
<path style="fill:#878789; stroke:none;" d="M129 143C131.89 144.213 134.874 143.998 138 144C135.11 142.787 132.126 143.002 129 143z"/>
<path style="fill:#3d3c3f; stroke:none;" d="M128 144L128 157C129.591 153.209 129.591 147.791 128 144z"/>
<path style="fill:#808082; stroke:none;" d="M139 144L140 145L139 144z"/>
<path style="fill:#6b6d6e; stroke:none;" d="M130 145L130 158C131.552 154.303 131 149.983 131 146L139 146C136.11 144.787 133.126 145.002 130 145z"/>
<path style="fill:#585858; stroke:none;" d="M19 147C21.6127 148.098 24.1645 147.993 27 148C24.3873 146.902 21.8355 147.007 19 147z"/>
<path style="fill:#e7e6e9; stroke:none;" d="M129 147L129 157C130.346 153.793 130.346 150.207 129 147z"/>
<path style="fill:#1a1c1e; stroke:none;" d="M16 148L16 150L18 150C17.4549 148.365 17.6352 148.545 16 148z"/>
<path style="fill:#e8e8e8; stroke:none;" d="M18 148C20.8897 149.213 23.8741 148.998 27 149C24.1103 147.787 21.1259 148.002 18 148z"/>
<path style="fill:#79797b; stroke:none;" d="M27 148L27 156C28.1614 153.23 28.1614 150.77 27 148z"/>
<path style="fill:#565658; stroke:none;" d="M18 149C20.3315 149.985 22.4567 149.981 25 150C22.6685 149.015 20.5433 149.019 18 149z"/>
<path style="fill:#69686b; stroke:none;" d="M25 149L25 157C26.1614 154.23 26.1614 151.77 25 149z"/>
<path style="fill:#bbbdbf; stroke:none;" d="M26 149C26.0133 152.769 25.6484 155.827 29 158L26 149z"/>
<path style="fill:#797b7c; stroke:none;" d="M28 156C30.8897 157.213 33.8741 156.998 37 157C34.1103 155.787 31.1259 156.002 28 156z"/>
<path style="fill:#2d2d2d; stroke:none;" d="M37 156L38 157L37 156z"/>
<path style="fill:#171717; stroke:none;" d="M119 156C121.89 157.213 124.874 156.998 128 157C125.11 155.787 122.126 156.002 119 156z"/>
<path style="fill:#7b7d81; stroke:none;" d="M26 157L27 158L26 157z"/>
<path style="fill:#ced0d1; stroke:none;" d="M29 157C31.6127 158.098 34.1645 157.993 37 158C34.3873 156.902 31.8355 157.007 29 157z"/>
<path style="fill:#78787a; stroke:none;" d="M37.3333 157.667C37.2778 157.722 37.2222 158.778 37.6667 158.333C37.7222 158.278 37.7778 157.222 37.3333 157.667z"/>
<path style="fill:#313131; stroke:none;" d="M118 157L118 166C119.256 163.006 119.256 159.994 118 157z"/>
<path style="fill:#979799; stroke:none;" d="M119 157C121.89 158.213 124.874 157.998 128 158C125.11 156.787 122.126 157.002 119 157z"/>
<path style="fill:#b1b0b5; stroke:none;" d="M128 157L128 159C129.635 158.455 129.455 158.635 130 157L128 157z"/>
<path style="fill:#37393b; stroke:none;" d="M27 158C29.6127 159.098 32.1645 158.993 35 159L35 166C36.0977 163.387 35.9928 160.835 36 158L27 158z"/>
<path style="fill:#b1b3b4; stroke:none;" d="M36 158L36 163C36.8299 160.97 36.8299 160.03 36 158z"/>
<path style="fill:#d6d6d8; stroke:none;" d="M119 158L119 167C120.098 164.387 119.993 161.835 120 159L128 159C125.11 157.787 122.126 158.002 119 158z"/>
<path style="fill:#5a595e; stroke:none;" d="M129 158L130 159L129 158z"/>
<path style="fill:#646667; stroke:none;" d="M37 159L37 166C38.0595 163.466 38.0595 161.534 37 159z"/>
<path style="fill:#464548; stroke:none;" d="M120 159L120 167C121.092 164.473 121.349 161.698 122 159L120 159z"/>
<path style="fill:#181a1c; stroke:none;" d="M121 160C120.83 165.226 119.421 168.153 114 169C120.731 171.741 123.378 165.667 121 160z"/>
<path style="fill:#9a9c9e; stroke:none;" d="M36 163C36.1759 164.878 36.4382 166.199 37 168C39.6858 167.499 42.27 167.117 45 167C45.0583 169.784 45.3521 172.291 46 175C49.9032 165.675 40.6816 167.469 36 163z"/>
<path style="fill:#323433; stroke:none;" d="M39 165C41.6127 166.098 44.1645 165.993 47 166C44.3873 164.902 41.8355 165.007 39 165z"/>
<path style="fill:#1f2324; stroke:none;" d="M35 166L35 168L37 168C36.4549 166.365 36.6352 166.545 35 166z"/>
<path style="fill:#6a6c6b; stroke:none;" d="M46 166L47 167L46 166z"/>
<path style="fill:#2c2e2f; stroke:none;" d="M47 166L47 175C48.2561 172.006 48.2561 168.994 47 166z"/>
<path style="fill:#505050; stroke:none;" d="M111 166C113.613 167.098 116.165 166.993 119 167C116.387 165.902 113.835 166.007 111 166z"/>
<path style="fill:#828484; stroke:none;" d="M39 167C41.0521 167.874 42.7472 167.953 45 168C42.9479 167.126 41.2528 167.047 39 167z"/>
<path style="fill:#585858; stroke:none;" d="M110 167L110 205C113.105 197.601 111 186.007 111 178C111 174.298 111.441 170.435 110 167z"/>
<path style="fill:#a5a5a5; stroke:none;" d="M111 167C113.816 168.629 116.762 168.056 120 168C117.11 166.787 114.126 167.002 111 167z"/>
<path style="fill:#f3f5f5; stroke:none;" d="M111 168L111 204C113.903 197.081 112 186.48 112 179C112 175.298 112.441 171.435 111 168z"/>
<path style="fill:#6d6d6d; stroke:none;" d="M113 168C115.052 168.874 116.747 168.953 119 169C116.948 168.126 115.253 168.047 113 168z"/>
<path style="fill:#6f7271; stroke:none;" d="M112 169L112 173C112.71 171.241 112.71 170.759 112 169z"/>
<path style="fill:#d8dadc; stroke:none;" d="M45.3333 173.667C45.2778 173.722 45.2222 174.778 45.6667 174.333C45.7222 174.278 45.7778 173.222 45.3333 173.667z"/>
<path style="fill:#9fa2a1; stroke:none;" d="M112.333 173.667C112.278 173.722 112.222 174.778 112.667 174.333C112.722 174.278 112.778 173.222 112.333 173.667z"/>
<path style="fill:#7e8182; stroke:none;" d="M45 175L46 176L45 175z"/>
<path style="fill:#a9a9a9; stroke:none;" d="M46 175C48.5599 176.942 50.8078 176.965 54 177L54 175L46 175z"/>
<path style="fill:#505050; stroke:none;" d="M54 175L55 176L54 175z"/>
<path style="fill:#7b7b7b; stroke:none;" d="M81 175C84.6975 176.552 89.0168 176 93 176C89.3025 174.448 84.9832 175 81 175z"/>
<path style="fill:#717173; stroke:none;" d="M112 175L112 204C113.328 200.834 113 197.419 113 194C113 188.113 114.292 180.462 112 175z"/>
<path style="fill:#7d7f81; stroke:none;" d="M46 176L47 177L46 176z"/>
<path style="fill:#777777; stroke:none;" d="M54.3333 176.667C54.2778 176.722 54.2222 177.778 54.6667 177.333C54.7222 177.278 54.7778 176.222 54.3333 176.667z"/>
<path style="fill:#151515; stroke:none;" d="M55 176L55 209C56.3283 205.834 55.9998 202.419 56 199C56.0004 192.049 57.7006 182.436 55 176z"/>
<path style="fill:#555756; stroke:none;" d="M80 176L80 185C81.2561 182.006 81.2561 178.994 80 176z"/>
<path style="fill:#c3c6c5; stroke:none;" d="M81 176L81 186C82.3904 182.882 82.5547 179.387 83 176L81 176z"/>
<path style="fill:#9d9d9d; stroke:none;" d="M83 176C85.8897 177.213 88.8741 176.998 92 177C89.1103 175.787 86.1259 176.002 83 176z"/>
<path style="fill:#acaeb0; stroke:none;" d="M92 176C91.8627 179.416 91.4603 182.61 92 186C93.3457 182.793 93.3457 179.207 92 176z"/>
<path style="fill:#5e605f; stroke:none;" d="M93 176L93 185C94.2561 182.006 94.2561 178.994 93 176z"/>
<path style="fill:#959597; stroke:none;" d="M53 177L53 202C53.0002 205.516 52.2137 209.565 55 212C53.1624 204.282 53.9878 195.896 54 188C54.0058 184.271 54.8773 180.247 53 177z"/>
<path style="fill:#a6a8a8; stroke:none;" d="M82.3333 177.667C82.2778 177.722 82.2222 178.778 82.6667 178.333C82.7222 178.278 82.7778 177.222 82.3333 177.667z"/>
<path style="fill:#494b4b; stroke:none;" d="M83 177C85.6127 178.098 88.1645 177.993 91 178C88.3873 176.902 85.8355 177.007 83 177z"/>
<path style="fill:#646665; stroke:none;" d="M91 177L91 182C91.8299 179.97 91.8299 179.03 91 177z"/>
<path style="fill:#808082; stroke:none;" d="M54 179L54 211C56.599 204.806 55.0004 195.686 55 189C54.9998 185.581 55.3283 182.166 54 179z"/>
<path style="fill:#7e8180; stroke:none;" d="M82 180L82 185C82.8299 182.97 82.8299 182.03 82 180z"/>
<path style="fill:#101012; stroke:none;" d="M71 184L71 193C72.1945 190.18 72.2818 187.007 73 184L71 184z"/>
<path style="fill:#222222; stroke:none;" d="M73 184C75.0521 184.874 76.7472 184.953 79 185C76.9479 184.126 75.2528 184.047 73 184z"/>
<path style="fill:#67696b; stroke:none;" d="M91 184L92 185L91 184z"/>
<path style="fill:#2b2b2b; stroke:none;" d="M94 184C96.6127 185.098 99.1645 184.993 102 185C99.3873 183.902 96.8355 184.007 94 184z"/>
<path style="fill:#7b7b7d; stroke:none;" d="M72 185L72 195C73.3457 191.793 73.3457 188.207 72 185z"/>
<path style="fill:#dfe2e1; stroke:none;" d="M73 187C75.7092 186.352 78.2155 186.058 81 186C78.0802 184.777 75.1633 184.524 73 187z"/>
<path style="fill:#3c4041; stroke:none;" d="M82 185L83 186L82 185z"/>
<path style="fill:#e4e6e7; stroke:none;" d="M93 185C95.8196 186.195 98.9926 186.282 102 187C99.727 184.399 96.3056 185.003 93 185z"/>
<path style="fill:#969698; stroke:none;" d="M102 185L102 212C104.541 205.945 104.541 191.055 102 185z"/>
<path style="fill:#1a1a1a; stroke:none;" d="M103 185L103 210C105.413 204.25 105.413 190.75 103 185z"/>
<path style="fill:#7d807f; stroke:none;" d="M74 186C76.3316 186.985 78.4566 186.981 81 187C78.6685 186.015 76.5433 186.019 74 186z"/>
<path style="fill:#494d4e; stroke:none;" d="M81 186L82 187L81 186z"/>
<path style="fill:#767676; stroke:none;" d="M93 186C95.6127 187.098 98.1645 186.993 101 187C98.3873 185.902 95.8355 186.007 93 186z"/>
<path style="fill:#caccce; stroke:none;" d="M73 187L73 195C74.1614 192.23 74.1614 189.77 73 187z"/>
<path style="fill:#c7c7c9; stroke:none;" d="M101 187C101 193.333 100.957 199.667 101.001 206C101.016 208.209 100.639 211.417 102.603 212.972C106.012 215.672 114.833 214 119 214C114.547 212.131 108.356 214.667 104.318 211.972C101.729 210.245 102.02 206.725 102.001 204C101.964 198.631 103.094 191.99 101 187z"/>
<path style="fill:#2f2f2f; stroke:none;" d="M62 195L62 204C63.2561 201.006 63.2561 197.994 62 195z"/>
<path style="fill:#c4c6c8; stroke:none;" d="M63 195L63 204L72 204C69.3873 202.902 66.8355 203.007 64 203L64 196L73 196C69.8367 194.673 66.4144 195 63 195z"/>
<path style="fill:#7e8084; stroke:none;" d="M73 195L74 196L73 195z"/>
<path style="fill:#646667; stroke:none;" d="M64 196L64 203C65.0095 200.767 65.4052 198.396 66 196L64 196z"/>
<path style="fill:#838587; stroke:none;" d="M66 196C68.3316 196.985 70.4567 196.981 73 197C70.6684 196.015 68.5433 196.019 66 196z"/>
<path style="fill:#2d2f33; stroke:none;" d="M73 196C70.271 196.81 67.8495 196.979 65 197C66.7375 198.001 74.3466 199.262 73 196z"/>
<path style="fill:#434547; stroke:none;" d="M65 202C67.8195 203.195 70.9926 203.282 74 204C71.727 201.399 68.3056 202.003 65 202z"/>
<path style="fill:#adafb3; stroke:none;" d="M72 203L72 205L74 205C73.4549 203.365 73.6352 203.545 72 203z"/>
<path style="fill:#616063; stroke:none;" d="M113 203C115.332 203.985 117.457 203.981 120 204C117.668 203.015 115.543 203.019 113 203z"/>
<path style="fill:#29282d; stroke:none;" d="M120 203L121 204L120 203z"/>
<path style="fill:#494b4b; stroke:none;" d="M63 204C64.769 204.779 66.0359 204.912 68 205C66.231 204.221 64.9641 204.088 63 204z"/>
<path style="fill:#5c5d61; stroke:none;" d="M68 204C69.506 204.683 70.3148 204.826 72 205C70.494 204.317 69.6852 204.174 68 204z"/>
<path style="fill:#181a1e; stroke:none;" d="M74 204L74 213C75.2561 210.006 75.2561 206.994 74 204z"/>
<path style="fill:#aaaaac; stroke:none;" d="M111 204L112 205L111 204z"/>
<path style="fill:#bfc1c2; stroke:none;" d="M112 204C114.613 205.098 117.165 204.993 120 205L120 212C121.098 209.387 120.993 206.835 121 204L112 204z"/>
<path style="fill:#404546; stroke:none;" d="M121 204L121 212C122.161 209.23 122.161 206.77 121 204z"/>
<path style="fill:#787a7b; stroke:none;" d="M72 205L72 211C72.9511 208.715 72.9511 207.285 72 205z"/>
<path style="fill:#cecfd3; stroke:none;" d="M73 205L73 211C73.9511 208.715 73.9511 207.285 73 205z"/>
<path style="fill:#101012; stroke:none;" d="M111 205C113.613 206.098 116.165 205.993 119 206C116.387 204.902 113.835 205.007 111 205z"/>
<path style="fill:#6a6c6d; stroke:none;" d="M119 205L119 212C120.059 209.466 120.059 207.534 119 205z"/>
<path style="fill:#3e4140; stroke:none;" d="M55 211C59.974 213.087 66.6381 212 72 212C67.026 209.913 60.3619 211 55 211z"/>
<path style="fill:#a6a8a8; stroke:none;" d="M54 212C59.3847 214.26 68.464 213.636 74 212C68.0749 210.577 60.2208 212 54 212z"/>
<path style="fill:#191b1d; stroke:none;" d="M103 211C107.724 212.982 113.91 212 119 212C114.276 210.018 108.09 211 103 211z"/>
<path style="fill:#464b4b; stroke:none;" d="M53 212L54 213L53 212z"/>
<path style="fill:#5a5c60; stroke:none;" d="M73 212L74 213L73 212z"/>
<path style="fill:#9a999c; stroke:none;" d="M103 212C107.89 214.052 115.748 213.577 121 213C115.778 210.809 108.632 212 103 212z"/>
<path style="fill:#202425; stroke:none;" d="M121.333 212.667C121.278 212.722 121.222 213.778 121.667 213.333C121.722 213.278 121.778 212.222 121.333 212.667z"/>
<path style="fill:#565859; stroke:none;" d="M56 213C60.974 215.087 67.638 214 73 214C68.026 211.913 61.3619 213 56 213z"/>
<path style="fill:#575759; stroke:none;" d="M101 213L102 214L101 213z"/>
<path style="fill:#4e5354; stroke:none;" d="M120 213L121 214L120 213z"/>
</svg>
